<svg xmlns="http://www.w3.org/2000/svg" aria-hidden="true" style="position:absolute;width:0;height:0;overflow:hidden">
  <defs>
    <symbol id="facebook" viewBox="0 0 32 32">
      <path fill="#f4f4fd" d="M21.329 5.313h2.921V.225C23.746.156 22.013 0 19.994 0c-4.212 0-7.097 2.649-7.097 7.519V12H8.249v5.688h4.648V32h5.699V17.689h4.46l.708-5.688h-5.169V8.082c.001-1.644.444-2.769 2.735-2.769z" style="fill:var(--color1, #f4f4fd)"/>
    </symbol>
    <symbol id="instagram" viewBox="0 0 32 32">
      <path fill="#f4f4fd" d="M31.969 9.408c-.075-1.7-.35-2.869-.744-3.882a7.803 7.803 0 0 0-1.85-2.838A7.867 7.867 0 0 0 26.543.844C25.524.45 24.361.175 22.661.1 20.948.019 20.404 0 16.06 0s-4.888.019-6.595.094c-1.7.075-2.869.35-3.882.744a7.803 7.803 0 0 0-2.838 1.85A7.867 7.867 0 0 0 .901 5.52C.507 6.539.232 7.702.157 9.402c-.081 1.713-.1 2.257-.1 6.601s.019 4.888.094 6.595c.075 1.7.35 2.869.744 3.882a7.895 7.895 0 0 0 1.85 2.838 7.867 7.867 0 0 0 2.832 1.844c1.019.394 2.182.669 3.882.744 1.706.075 2.25.094 6.595.094s4.888-.018 6.595-.094c1.7-.075 2.869-.35 3.882-.744a8.181 8.181 0 0 0 4.682-4.682c.394-1.019.669-2.182.744-3.882.075-1.707.094-2.251.094-6.595s-.006-4.888-.081-6.595zm-2.882 13.065c-.069 1.563-.331 2.407-.55 2.969a5.307 5.307 0 0 1-3.038 3.038c-.563.219-1.413.481-2.969.55-1.688.075-2.194.094-6.464.094s-4.782-.018-6.464-.094c-1.563-.069-2.407-.331-2.969-.55a4.926 4.926 0 0 1-1.838-1.194 4.974 4.974 0 0 1-1.194-1.838c-.219-.563-.481-1.413-.55-2.969-.075-1.688-.094-2.194-.094-6.464s.019-4.782.094-6.464c.069-1.563.331-2.407.55-2.969a4.868 4.868 0 0 1 1.2-1.838A4.974 4.974 0 0 1 6.639 3.55c.563-.219 1.413-.481 2.969-.55 1.688-.075 2.194-.094 6.464-.094 4.276 0 4.782.019 6.464.094 1.563.069 2.407.331 2.969.55a4.914 4.914 0 0 1 1.838 1.194 4.974 4.974 0 0 1 1.194 1.838c.219.563.481 1.413.55 2.969.075 1.688.094 2.194.094 6.464s-.019 4.77-.094 6.457z" style="fill:var(--color1, #f4f4fd)"/>
      <path fill="#f4f4fd" d="M16.059 7.782c-4.538 0-8.22 3.682-8.22 8.22s3.682 8.22 8.22 8.22 8.22-3.682 8.22-8.22-3.682-8.22-8.22-8.22zm0 13.553a5.333 5.333 0 0 1 0-10.664 5.333 5.333 0 0 1 0 10.664zM26.524 7.457a1.919 1.919 0 1 1-3.838 0 1.919 1.919 0 0 1 3.838 0z" style="fill:var(--color1, #f4f4fd)"/>
    </symbol>
    <symbol id="linkedin" viewBox="0 0 32 32">
      <path fill="#f4f4fd" d="M31.992 32v-.001H32V20.263c0-5.741-1.236-10.164-7.948-10.164-3.227 0-5.392 1.771-6.276 3.449h-.093v-2.913h-6.364v21.364h6.627V21.42c0-2.785.528-5.479 3.977-5.479 3.399 0 3.449 3.179 3.449 5.657v10.401h6.62zM.528 10.636h6.635V32H.528V10.636zM3.843 0C1.722 0 0 1.721 0 3.843s1.721 3.879 3.843 3.879c2.121 0 3.843-1.757 3.843-3.879A3.846 3.846 0 0 0 3.843 0z" style="fill:var(--color1, #f4f4fd)"/>
    </symbol>
    <symbol id="Logo-4" viewBox="0 0 59 32">
      <path d="M13.759 12.296h-.002c-1.363 0-2.468.996-2.468 2.225v.002c0 1.229 1.105 2.225 2.468 2.225h.002c1.363 0 2.468-.996 2.468-2.225v-.002c0-1.229-1.105-2.225-2.468-2.225zM31.978 11.585c-.004-1.707-.758-3.343-2.096-4.551s-3.153-1.887-5.047-1.891c-1.894.003-3.709.683-5.049 1.89s-2.094 2.844-2.098 4.552v9.414s14.288-1.435 14.289-9.412v-.001zM6.286 24.088c.003 1.188.528 2.326 1.46 3.166s2.194 1.314 3.511 1.317c1.317-.003 2.579-.477 3.511-1.317s1.456-1.978 1.46-3.165v-6.55s-9.942.999-9.942 6.549zm4.971 1.174c-.258 0-.509-.069-.723-.198s-.381-.312-.479-.527-.124-.45-.074-.678c.05-.228.174-.437.356-.601s.414-.276.666-.321c.252-.045.514-.022.752.067s.441.239.584.432a1.093 1.093 0 0 1 .121 1.103 1.164 1.164 0 0 1-.282.382c-.121.109-.265.196-.423.256s-.328.09-.499.09v-.004zM20.348 23.151v2.438h-.502v-2.438h.502zm.971 1.042v.392h-1.108v-.392h1.108zm.117-1.042v.393h-1.225v-.393h1.225zm2.294 1.162v.116c0 .185-.025.352-.075.499s-.121.273-.213.377a.919.919 0 0 1-.328.236 1.039 1.039 0 0 1-.42.082c-.153 0-.293-.027-.42-.082a.946.946 0 0 1-.328-.236 1.09 1.09 0 0 1-.216-.377 1.548 1.548 0 0 1-.075-.499v-.116c0-.186.025-.353.075-.499.05-.147.121-.273.213-.377a.938.938 0 0 1 .328-.238c.127-.055.267-.082.42-.082.154 0 .294.027.42.082a.912.912 0 0 1 .328.238c.093.104.164.229.214.377.051.146.077.312.077.499zm-.508.116v-.119c0-.13-.012-.243-.035-.342s-.058-.181-.104-.248a.46.46 0 0 0-.393-.203.458.458 0 0 0-.392.203c-.045.067-.079.15-.102.248s-.035.212-.035.342v.119c0 .128.012.242.035.341a.744.744 0 0 0 .104.249c.046.067.102.118.167.152s.141.052.226.052a.454.454 0 0 0 .392-.204.764.764 0 0 0 .102-.249c.023-.099.035-.213.035-.341zm2.138.522a.326.326 0 0 0-.02-.117.221.221 0 0 0-.07-.097c-.035-.03-.083-.06-.146-.089s-.143-.059-.243-.09a3.168 3.168 0 0 1-.315-.121 1.28 1.28 0 0 1-.261-.156.688.688 0 0 1-.177-.209.58.58 0 0 1-.064-.276c0-.102.022-.194.067-.276a.63.63 0 0 1 .188-.214.88.88 0 0 1 .285-.139 1.3 1.3 0 0 1 .363-.049c.18 0 .337.032.47.097s.238.154.311.266a.683.683 0 0 1 .112.387h-.499a.382.382 0 0 0-.045-.188.304.304 0 0 0-.134-.129.48.48 0 0 0-.224-.047.518.518 0 0 0-.218.04.297.297 0 0 0-.131.105.262.262 0 0 0-.044.147c0 .041.01.079.03.112.021.034.052.065.094.094s.092.056.152.082c.06.026.13.051.209.075.133.04.249.085.35.136.102.05.186.107.254.169a.624.624 0 0 1 .206.483c0 .106-.021.201-.062.285s-.101.155-.179.213c-.078.058-.171.102-.28.132s-.229.045-.363.045a1.4 1.4 0 0 1-.357-.047 1.072 1.072 0 0 1-.32-.146c-.095-.065-.171-.147-.228-.248s-.085-.219-.085-.357h.504c0 .076.012.14.035.192s.056.095.099.127a.426.426 0 0 0 .154.07c.06.015.126.022.198.022a.527.527 0 0 0 .214-.037.272.272 0 0 0 .126-.102.268.268 0 0 0 .042-.147zm1.934-1.8v2.438h-.501v-2.438h.501zm.75 0v.393h-1.989v-.393h1.989zm1.922 2.046v.392h-1.297v-.392h1.297zm-1.134-2.046v2.438h-.502v-2.438h.502zm.965.993v.382h-1.128v-.382h1.128zm.167-.993v.393h-1.296v-.393h1.296zm.295 0h.909c.186 0 .346.028.48.084.135.056.239.138.311.248s.109.244.109.403a.773.773 0 0 1-.067.337.63.63 0 0 1-.186.233.965.965 0 0 1-.28.147l-.159.084h-.79l-.003-.392h.588c.088 0 .161-.016.219-.047s.102-.075.131-.131a.403.403 0 0 0 .045-.194c0-.078-.015-.146-.044-.203s-.073-.1-.132-.131-.133-.045-.223-.045h-.407v2.044h-.502V23.15zm1.362 2.438-.556-1.086.531-.003.562 1.066v.023h-.537zm2.637-.869h-.621v-.392h.621a.51.51 0 0 0 .234-.047c.06-.032.104-.077.132-.134s.042-.121.042-.192c0-.073-.014-.14-.042-.203s-.072-.113-.132-.151-.138-.057-.234-.057h-.447v2.044h-.502V23.15h.949c.191 0 .354.035.49.104a.742.742 0 0 1 .424.696c0 .157-.036.294-.109.408s-.177.204-.315.266c-.136.062-.3.094-.49.094zm2.896.477v.392h-1.297v-.392h1.297zm-1.133-2.046v2.438h-.502v-2.438h.502zm.964.993v.382h-1.128v-.382h1.128zm.168-.993v.393h-1.296v-.393h1.296zm1.418 0v2.438h-.501v-2.438h.501zm.75 0v.393h-1.989v-.393h1.989zm1.921 2.046v.392h-1.297v-.392h1.297zm-1.133-2.046v2.438h-.502v-2.438h.502zm.964.993v.382h-1.128v-.382h1.128zm.168-.993v.393h-1.296v-.393h1.296zm.294 0h.909c.186 0 .347.028.48.084.135.056.239.138.311.248s.109.244.109.403a.773.773 0 0 1-.067.337.63.63 0 0 1-.186.233.965.965 0 0 1-.28.147l-.159.084h-.79l-.003-.392h.588c.088 0 .161-.016.219-.047s.102-.075.131-.131a.403.403 0 0 0 .045-.194c0-.078-.014-.146-.044-.203s-.073-.1-.132-.131a.489.489 0 0 0-.223-.045h-.407v2.044h-.502V23.15zm1.363 2.438-.556-1.086.531-.003.563 1.066v.023h-.537zm2.103-.638a.326.326 0 0 0-.02-.117.221.221 0 0 0-.07-.097c-.035-.03-.083-.06-.146-.089s-.143-.059-.243-.09a3.076 3.076 0 0 1-.315-.121 1.28 1.28 0 0 1-.261-.156.58.58 0 0 1-.242-.485c0-.102.022-.194.067-.276a.63.63 0 0 1 .188-.214.88.88 0 0 1 .285-.139c.111-.032.232-.049.363-.049.18 0 .337.032.47.097s.238.154.311.266a.683.683 0 0 1 .112.387h-.499a.382.382 0 0 0-.045-.188.304.304 0 0 0-.134-.129.48.48 0 0 0-.224-.047.518.518 0 0 0-.218.04.297.297 0 0 0-.131.105.262.262 0 0 0-.044.147c0 .041.01.079.03.112.021.034.052.065.094.094s.092.056.152.082c.06.026.13.051.209.075.133.04.249.085.35.136.102.05.186.107.254.169a.624.624 0 0 1 .206.483c0 .106-.021.201-.062.285s-.101.155-.179.213c-.078.058-.171.102-.28.132s-.229.045-.363.045a1.4 1.4 0 0 1-.357-.047 1.072 1.072 0 0 1-.32-.146c-.095-.065-.171-.147-.228-.248s-.085-.219-.085-.357h.504c0 .076.012.14.035.192s.056.095.099.127a.426.426 0 0 0 .154.07c.06.015.126.022.198.022a.527.527 0 0 0 .214-.037.272.272 0 0 0 .126-.102.268.268 0 0 0 .042-.147z"/>
    </symbol>
    <symbol id="twitter" viewBox="0 0 32 32">
      <path fill="#f4f4fd" d="M32 6.078c-1.19.522-2.458.868-3.78 1.036a6.523 6.523 0 0 0 2.886-3.626 13.11 13.11 0 0 1-4.16 1.588A6.574 6.574 0 0 0 22.154 3c-3.632 0-6.556 2.948-6.556 6.562 0 .52.044 1.02.152 1.496-5.454-.266-10.28-2.88-13.522-6.862a6.605 6.605 0 0 0-.898 3.316 6.57 6.57 0 0 0 2.914 5.452 6.479 6.479 0 0 1-2.964-.808v.072c0 3.188 2.274 5.836 5.256 6.446a6.548 6.548 0 0 1-1.72.216 5.8 5.8 0 0 1-1.242-.112c.85 2.598 3.262 4.508 6.13 4.57a13.182 13.182 0 0 1-8.134 2.798c-.538 0-1.054-.024-1.57-.09A18.469 18.469 0 0 0 10.064 29c12.072 0 18.672-10 18.672-18.668 0-.29-.01-.57-.024-.848A13.087 13.087 0 0 0 32 6.078z" style="fill:var(--color1, #f4f4fd)"/>
    </symbol>
  </defs>
</svg>